# Blender v2.91.0 OBJ File: 'BaseHouse.blend'
# www.blender.org
mtllib BaseHouse.mtl
o House_Cube.006
v -4.178744 -0.000000 4.178744
v -4.178744 4.340357 4.178744
v -4.178744 -0.000000 -4.178744
v -4.178744 4.340357 -4.178744
v 4.178743 -0.000000 4.178744
v 4.178743 4.340357 4.178744
v 4.178743 -0.000000 -4.178744
v 4.178743 4.340357 -4.178744
v -4.178744 -0.000000 -2.349113
v -4.178744 -0.000000 2.349113
v -4.178744 4.340357 2.349113
v -4.178744 4.340357 -2.349113
v 4.178743 -0.000000 2.349113
v 4.178743 0.818888 -2.349113
v 4.178743 4.002010 -2.349113
v 4.178743 4.340357 2.349113
v 6.670548 -0.000000 2.349113
v 6.357151 0.818888 -2.349113
v 6.357151 4.002010 -2.349113
v 6.670548 4.340357 2.349113
v 6.670548 0.818888 1.722788
v 6.670548 0.818888 -1.722788
v 6.670548 4.002010 -1.722788
v 6.670548 4.002010 1.722788
v 4.178743 0.818888 -1.722788
v 4.178743 4.002010 -1.722788
v 4.178743 4.002010 1.722788
v 4.178743 0.818888 2.349113
v 6.357151 0.818888 2.349113
v 4.178743 4.002010 2.349113
v 6.357151 4.002010 2.349113
v 4.178743 4.340357 -2.349113
v 4.178743 -0.000000 -2.349113
v 6.670548 4.340357 -2.349113
v 6.670548 -0.000000 -2.349113
v 4.178743 0.818888 1.722788
v 6.357151 4.002010 1.722788
v 6.357151 0.818888 1.722788
v 6.357151 4.002010 -1.722788
v 6.357151 0.818888 -1.722788
v -0.000000 -0.000000 -4.178744
v -0.000000 4.340357 -4.178744
v -0.000000 -0.000000 4.178744
v -0.000000 4.340357 4.178744
v -4.178744 -0.000000 -0.000000
v -4.178744 4.340357 -0.000000
v 6.670548 -0.000000 -0.000000
v 6.670548 4.340357 -0.000000
v 6.670548 0.818888 -0.000000
v 6.670548 4.002010 -0.000000
v 4.178743 4.002010 -0.000000
v 4.178743 0.818888 -0.000000
v -4.778407 4.340357 -2.829933
v -4.778407 4.340357 -4.832540
v 0.054132 4.340357 -4.832540
v 4.886672 4.340357 -4.832540
v 0.054132 4.340357 4.832540
v -4.778407 4.340357 4.832540
v 6.946983 4.340357 0.000000
v 6.946983 4.340357 2.829933
v 4.886672 4.340357 2.829933
v 4.886672 4.340357 4.832540
v 0.004785 6.606125 1.526469
v -4.778407 4.340357 2.829933
v -4.778407 4.340357 0.000000
v 4.886672 4.340357 -2.829933
v 0.004786 6.606125 0.000000
v 0.004785 6.606125 -1.526469
v 6.946983 6.606125 0.000000
v 6.946983 4.340357 -2.829933
v 0.004785 6.606125 0.000000
vt 0.375000 0.166667
vt 0.625000 0.166667
vt 0.625000 0.250000
vt 0.375000 0.250000
vt 0.375000 0.375000
vt 0.625000 0.375000
vt 0.625000 0.500000
vt 0.375000 0.500000
vt 0.375000 0.666667
vt 0.625000 0.666667
vt 0.625000 0.750000
vt 0.375000 0.750000
vt 0.375000 0.875000
vt 0.625000 0.875000
vt 0.625000 1.000000
vt 0.375000 1.000000
vt 0.625000 0.083333
vt 0.625000 0.000000
vt 0.625000 0.000000
vt 0.625000 0.083333
vt 0.625000 0.625000
vt 0.625000 0.583333
vt 0.625000 0.583333
vt 0.625000 0.625000
vt 0.625000 0.375000
vt 0.625000 0.500000
vt 0.625000 0.583333
vt 0.375000 0.583333
vt 0.375000 0.666667
vt 0.625000 0.666667
vt 0.625000 0.666667
vt 0.375000 0.666667
vt 0.375000 0.000000
vt 0.375000 0.083333
vt 0.375000 0.125000
vt 0.625000 0.125000
vt 0.375000 0.666667
vt 0.625000 0.666667
vt 0.625000 0.583333
vt 0.608106 0.583333
vt 0.608106 0.583333
vt 0.608106 0.583333
vt 0.608106 0.583333
vt 0.625000 0.666667
vt 0.375000 0.666667
vt 0.375000 0.666667
vt 0.625000 0.666667
vt 0.625000 0.625000
vt 0.375000 0.583333
vt 0.625000 0.583333
vt 0.375000 0.583333
vt 0.375000 0.625000
vt 0.375000 0.625000
vt 0.375000 0.625000
vt 0.625000 0.625000
vt 0.375000 0.583333
vt 0.375000 0.666667
vt 0.391894 0.583333
vt 0.391894 0.583333
vt 0.625000 0.666667
vt 0.391894 0.583333
vt 0.391894 0.583333
vt 0.625000 0.875000
vt 0.625000 1.000000
vt 0.625000 0.666667
vt 0.625000 0.666667
vt 0.625000 0.750000
vt 0.625000 0.583333
vt 0.625000 0.166667
vt 0.625000 0.250000
vt 0.625000 0.125000
vt 0.625000 0.875000
vt 0.625000 0.625000
vt 0.625000 0.375000
vt 0.750000 0.666667
vt 0.875000 0.666667
vt 0.875000 0.750000
vt 0.750000 0.500000
vt 0.875000 0.500000
vt 0.875000 0.583333
vt 0.750000 0.625000
vt 0.875000 0.625000
vt 0.625000 0.625000
vt 0.750000 0.583333
vt 0.750000 0.750000
vn -1.0000 0.0000 0.0000
vn 0.0000 0.0000 -1.0000
vn 1.0000 0.0000 0.0000
vn 0.0000 0.0000 1.0000
vn 0.0000 -1.0000 0.0000
vn 0.0000 1.0000 0.0000
vn 0.0000 0.8249 0.5653
vn 0.0000 0.8249 -0.5653
vn -0.4281 0.9037 0.0000
vn 0.0000 0.7806 0.6250
vn 0.4210 0.9071 0.0000
vn 0.0000 0.7806 -0.6250
usemtl None
s off
f 9/1/1 12/2/1 4/3/1 3/4/1
f 41/5/2 42/6/2 8/7/2 7/8/2
f 13/9/3 16/10/3 6/11/3 5/12/3
f 43/13/4 44/14/4 2/15/4 1/16/4
f 11/17/5 2/18/5 58/19/5 64/20/5
f 48/21/5 34/22/5 70/23/5 59/24/5
f 8/7/5 42/6/5 55/25/5 56/26/5
f 7/8/3 8/7/3 32/27/3 33/28/3
f 17/29/4 20/30/4 31/31/4 29/32/4
f 1/33/1 2/18/1 11/17/1 10/34/1
f 45/35/1 46/36/1 12/2/1 9/1/1
f 20/30/3 17/29/3 21/37/3 24/38/3
f 34/22/5 32/27/5 66/39/5 70/23/5
f 15/40/5 19/41/5 39/42/5 26/43/5
f 30/44/3 28/45/3 36/46/3 27/47/3
f 48/21/3 20/30/3 24/38/3 50/48/3
f 35/49/3 34/22/3 23/50/3 22/51/3
f 47/52/3 35/49/3 22/51/3 49/53/3
f 52/54/3 51/55/3 27/47/3 36/46/3
f 49/53/6 22/51/6 25/56/6 52/54/6
f 50/48/5 24/38/5 27/47/5 51/55/5
f 16/10/1 13/9/1 28/45/1 30/44/1
f 13/9/4 17/29/4 29/32/4 28/45/4
f 20/30/4 16/10/4 30/44/4 31/31/4
f 28/45/6 29/32/6 38/57/6 36/46/6
f 15/40/1 14/58/1 33/28/1 32/27/1
f 18/59/2 19/41/2 34/22/2 35/49/2
f 19/41/2 15/40/2 32/27/2 34/22/2
f 14/58/2 18/59/2 35/49/2 33/28/2
f 31/31/5 30/44/5 27/47/5 37/60/5
f 29/32/1 31/31/1 37/60/1 38/57/1
f 24/38/2 21/37/2 38/57/2 37/60/2
f 14/58/3 15/40/3 26/43/3 25/61/3
f 18/59/6 14/58/6 25/61/6 40/62/6
f 19/41/1 18/59/1 40/62/1 39/42/1
f 22/51/4 23/50/4 39/42/4 40/62/4
f 38/57/4 21/37/4 36/46/4
f 22/51/6 40/62/6 25/61/6
f 27/47/2 24/38/2 37/60/2
f 15/40/3 33/28/3 14/58/3 32/27/3
f 2/15/5 44/14/5 57/63/5 58/64/5
f 16/10/5 20/30/5 60/65/5 61/66/5
f 32/27/5 8/7/5 56/26/5 66/39/5
f 5/12/4 6/11/4 44/14/4 43/13/4
f 3/4/2 4/3/2 42/6/2 41/5/2
f 44/14/5 6/11/5 62/67/5 57/63/5
f 23/50/5 50/48/5 51/55/5 26/68/5
f 21/37/6 49/53/6 52/54/6 36/46/6
f 25/56/3 26/68/3 51/55/3 52/54/3
f 17/29/3 47/52/3 49/53/3 21/37/3
f 34/22/3 48/21/3 50/48/3 23/50/3
f 4/3/5 12/2/5 53/69/5 54/70/5
f 10/34/1 11/17/1 46/36/1 45/35/1
f 46/36/5 11/17/5 64/20/5 65/71/5
f 58/64/7 57/63/7 63/72/7
f 60/65/3 59/24/3 69/73/3
f 56/26/8 55/25/8 68/74/8
f 59/24/3 70/23/3 69/73/3
f 57/63/7 62/67/7 63/72/7
f 20/30/5 48/21/5 59/24/5 60/65/5
f 12/2/5 46/36/5 65/71/5 53/69/5
f 42/6/5 4/3/5 54/70/5 55/25/5
f 6/11/5 16/10/5 61/66/5 62/67/5
f 63/75/9 64/76/9 58/77/9
f 68/78/9 54/79/9 53/80/9
f 71/81/9 65/82/9 64/76/9 63/75/9
f 67/83/10 61/66/10 60/65/10 69/73/10
f 67/83/11 71/81/11 63/75/11 61/66/11
f 56/26/11 68/84/11 66/39/11
f 61/66/11 63/85/11 62/67/11
f 66/39/11 68/84/11 71/81/11 67/83/11
f 66/39/12 67/83/12 69/73/12 70/23/12
f 68/84/9 53/80/9 65/82/9 71/81/9
f 55/25/8 54/70/8 68/74/8
o Chimnee_Cube.009
v -1.070086 0.000000 -3.865721
v 0.004785 6.606125 -3.865721
v -1.070086 0.000000 -4.500068
v 0.004785 6.606125 -4.500068
v 1.070086 0.000000 -3.865721
v 1.070086 6.606125 -3.865721
v 1.070086 0.000000 -4.500068
v 1.070086 6.606125 -4.500068
v -1.070086 2.827070 -3.865721
v -1.070086 2.827070 -4.500068
v 1.070086 2.827070 -4.500068
v 1.070086 2.827070 -3.865721
v 0.004785 4.164837 -3.865721
v 0.004785 4.164837 -4.500068
v 1.070086 4.164837 -4.500068
v 1.070086 4.164837 -3.865721
vt 0.562500 0.000000
vt 0.625000 0.000000
vt 0.625000 0.250000
vt 0.562500 0.250000
vt 0.625000 0.500000
vt 0.562500 0.500000
vt 0.625000 0.750000
vt 0.562500 0.750000
vt 0.625000 1.000000
vt 0.562500 1.000000
vt 0.875000 0.500000
vt 0.875000 0.750000
vt 0.375000 0.500000
vt 0.500000 0.500000
vt 0.500000 0.750000
vt 0.375000 0.750000
vt 0.375000 0.250000
vt 0.500000 0.250000
vt 0.375000 0.000000
vt 0.500000 0.000000
vn -1.0000 0.0000 0.0000
vn 0.0000 0.0000 -1.0000
vn 1.0000 0.0000 0.0000
vn 0.0000 0.0000 1.0000
vn 0.0000 1.0000 0.0000
vn -0.7795 0.6263 0.0000
usemtl None
s off
f 84/86/13 73/87/13 75/88/13 85/89/13
f 85/89/14 75/88/14 79/90/14 86/91/14
f 86/91/15 79/90/15 77/92/15 87/93/15
f 87/93/16 77/92/16 73/94/16 84/95/16
f 79/90/17 75/96/17 73/97/17 77/92/17
f 78/98/15 82/99/15 83/100/15 76/101/15
f 74/102/14 81/103/14 82/99/14 78/98/14
f 72/104/13 80/105/13 81/103/13 74/102/13
f 82/99/15 86/91/15 87/93/15 83/100/15
f 81/103/14 85/89/14 86/91/14 82/99/14
f 80/105/18 84/86/18 85/89/18 81/103/18
o Front_Stairs_Cube.010
v 6.670548 0.541543 0.938440
v 6.670548 -0.000000 0.938440
v 6.670548 0.541543 -0.938440
v 6.670548 -0.000000 -0.938440
v 7.878311 -0.000000 0.938440
v 7.878311 -0.000000 -0.938440
v 7.274430 0.541543 -0.938440
v 7.274430 -0.000000 -0.938440
v 7.274430 0.541543 0.938440
v 7.274430 -0.000000 0.938440
v 6.670548 0.270771 0.938440
v 6.670548 0.270771 -0.938440
v 7.878311 0.270771 -0.938440
v 7.878311 0.270771 0.938440
v 7.274430 0.270771 0.938440
v 7.274430 0.270771 -0.938440
vt 0.500000 0.375000
vt 0.500000 0.500000
vt 0.625000 0.500000
vt 0.625000 0.375000
vt 0.500000 0.750000
vt 0.625000 0.750000
vt 0.500000 0.875000
vt 0.500000 1.000000
vt 0.625000 1.000000
vt 0.625000 0.875000
vt 0.125000 0.500000
vt 0.125000 0.750000
vt 0.250000 0.750000
vt 0.250000 0.500000
vt 0.500000 0.250000
vt 0.625000 0.250000
vt 0.375000 0.250000
vt 0.375000 0.375000
vt 0.375000 0.875000
vt 0.375000 1.000000
vn 0.0000 0.0000 -1.0000
vn 1.0000 0.0000 0.0000
vn 0.0000 0.0000 1.0000
vn 0.0000 1.0000 0.0000
usemtl None
s off
f 103/106/19 100/107/19 93/108/19 95/109/19
f 100/107/20 101/110/20 92/111/20 93/108/20
f 102/112/21 98/113/21 89/114/21 97/115/21
f 90/116/22 88/117/22 96/118/22 94/119/22
f 101/110/21 102/112/21 97/115/21 92/111/21
f 99/120/19 103/106/19 95/109/19 91/121/19
f 90/122/19 94/123/19 103/106/19 99/120/19
f 96/124/21 88/125/21 98/113/21 102/112/21
f 102/112/20 103/106/20 94/119/20 96/124/20
f 102/112/22 101/110/22 100/107/22 103/106/22
