# Blender v2.91.0 OBJ File: 'car.blend'
# www.blender.org
mtllib car.mtl
o Car_Cube.001
v 0.043534 -0.665534 -1.024021
v 0.043534 0.546552 -0.543833
v -1.095152 -0.665534 -1.020589
v -1.095152 0.546552 -0.540401
v 0.797118 -0.665534 -1.041180
v 0.776528 0.191970 -0.807271
v 1.069897 -0.670140 -1.020887
v 1.300194 0.097715 -0.911032
v 1.810819 -0.665534 -1.000001
v 1.831408 -0.034832 -1.032997
v 2.189670 -0.660767 -0.844477
v 2.126162 -0.095884 -0.884466
v -1.874816 -0.587293 -0.999999
v -1.712899 0.202577 -0.764424
v -2.317859 -0.508231 -0.817239
v -2.287873 0.212794 -0.836460
v 0.039213 0.041070 -0.955825
v -1.165568 0.077928 -0.952393
v 0.790255 -0.096085 -1.041180
v 1.058450 -0.206385 -1.062396
v 1.746990 -0.267956 -1.063439
v 2.124123 -0.349251 -0.957919
v -1.730736 -0.153390 -0.950622
v -2.366630 -0.222910 -0.900652
v 0.043535 -0.665534 1.024021
v 0.043535 0.546552 0.543833
v -1.095151 -0.665534 1.020590
v -1.095151 0.546552 0.540401
v 0.060693 -0.665534 -0.000000
v 0.060693 0.578326 -0.000000
v -1.088288 -0.665534 0.000000
v -1.088288 0.578326 0.000000
v 0.797119 -0.665534 1.041179
v 0.776529 0.191970 0.807270
v 0.793687 -0.665534 -0.000000
v 0.773097 0.191970 -0.000000
v 1.069898 -0.670140 1.020886
v 1.300194 0.097715 0.911032
v 1.073707 -0.665534 -0.000000
v 1.300194 0.154909 -0.000000
v 1.810819 -0.665534 0.999999
v 1.831409 -0.034832 1.032996
v 1.810819 -0.665534 -0.000001
v 1.831409 0.056078 -0.000001
v 2.189670 -0.660767 0.844476
v 2.126163 -0.095884 0.884465
v 2.189670 -0.665534 -0.000001
v 2.127901 -0.116876 -0.000001
v -1.874815 -0.587293 1.000001
v -1.712899 0.202577 0.764425
v -1.874815 -0.587293 0.000001
v -1.759513 0.202577 0.000001
v -2.317858 -0.508231 0.817240
v -2.287872 0.212794 0.836462
v -2.356552 -0.494956 0.000001
v -2.323608 0.210184 0.000001
v 0.039213 0.041070 0.955824
v -1.165567 0.077928 0.952393
v 0.790255 -0.096085 1.041179
v 1.058450 -0.206385 1.062395
v 1.746991 -0.267956 1.063438
v 2.124124 -0.349251 0.957918
v 2.134078 -0.448856 -0.000001
v -1.730736 -0.153390 0.950623
v -2.366630 -0.222910 0.900653
v -2.414203 -0.237099 0.000001
vt 0.713763 0.454500
vt 0.719202 0.341533
vt 0.868354 0.296782
vt 0.874671 0.457760
vt 0.732728 0.173884
vt 0.720804 0.307768
vt 0.475007 0.309671
vt 0.474336 0.168905
vt 0.546783 0.607564
vt 0.528955 0.607564
vt 0.528849 0.591728
vt 0.546517 0.591675
vt 0.475393 0.449671
vt 0.479552 0.335114
vt 0.305617 0.446232
vt 0.308255 0.275664
vt 0.313093 0.137181
vt 0.315902 0.216321
vt 0.203272 0.188346
vt 0.254947 0.115380
vt 0.558210 0.591408
vt 0.558157 0.607564
vt 0.562502 0.607564
vt 0.562443 0.591723
vt 0.573939 0.592047
vt 0.573939 0.607564
vt 0.194385 0.443979
vt 0.196023 0.251375
vt 0.080516 0.223147
vt 0.080873 0.441680
vt 0.008643 0.440216
vt 0.016211 0.253500
vt 0.088324 0.153746
vt 0.107637 0.104031
vt 0.000116 0.849589
vt 0.041142 0.991133
vt 0.535180 0.979479
vt 0.535180 0.794031
vt 0.579818 0.594460
vt 0.579818 0.607564
vt 0.017426 0.142012
vt 0.024150 0.085935
vt 0.855676 0.127978
vt 0.887730 0.033107
vt 0.991952 0.049303
vt 0.994881 0.114649
vt 0.516691 0.607564
vt 0.516691 0.592047
vt 0.718833 0.013896
vt 0.549236 0.775971
vt 0.549236 0.986758
vt 0.937988 0.988623
vt 0.966219 0.782103
vt 0.509080 0.607564
vt 0.509708 0.594883
vt 0.989535 0.284206
vt 0.993304 0.460163
vt 0.549236 0.653975
vt 0.928371 0.646998
vt 0.852358 0.215726
vt 0.978133 0.210142
vt 0.092120 0.018319
vt 0.004335 0.016241
vt 0.063496 0.671761
vt 0.535180 0.669094
vt 0.251047 0.015240
vt 0.472728 0.015125
vt 0.309786 0.015664
vt 0.861840 0.618350
vt 0.714623 0.567595
vt 0.732728 0.173884
vt 0.474336 0.168905
vt 0.475007 0.309671
vt 0.720804 0.307768
vt 0.546517 0.623453
vt 0.528849 0.623400
vt 0.474909 0.564303
vt 0.301345 0.616768
vt 0.313093 0.137181
vt 0.254947 0.115380
vt 0.203272 0.188346
vt 0.315902 0.216321
vt 0.558210 0.623719
vt 0.573939 0.623080
vt 0.562443 0.623405
vt 0.188222 0.636492
vt 0.071666 0.660018
vt 0.008643 0.627087
vt 0.107637 0.104031
vt 0.088324 0.153746
vt 0.000116 0.849589
vt 0.041142 0.991133
vt 0.579818 0.620667
vt 0.024150 0.085935
vt 0.017426 0.142012
vt 0.855676 0.127978
vt 0.994881 0.114649
vt 0.991952 0.049303
vt 0.887730 0.033107
vt 0.516691 0.623080
vt 0.718833 0.013896
vt 0.966219 0.782103
vt 0.937988 0.988623
vt 0.509708 0.620245
vt 0.982412 0.635823
vt 0.928371 0.646998
vt 0.852358 0.215726
vt 0.978133 0.210142
vt 0.092120 0.018319
vt 0.004335 0.016241
vt 0.063496 0.671761
vt 0.251047 0.015240
vt 0.472728 0.015125
vt 0.309786 0.015664
vn -0.4824 0.8752 -0.0360
vn 0.0079 0.6454 -0.7638
vn 0.0000 -1.0000 0.0000
vn -0.0001 0.9983 -0.0585
vn 0.4523 0.8915 -0.0256
vn 0.0078 0.5432 -0.8396
vn 0.0270 0.6312 -0.7751
vn 0.0031 -1.0000 0.0023
vn 0.1208 0.9921 -0.0328
vn -0.0084 -1.0000 0.0022
vn 0.3752 0.9263 -0.0341
vn -0.0402 0.3421 -0.9388
vn 0.2040 0.9761 -0.0744
vn 1.0000 0.0078 -0.0058
vn 0.0068 -1.0000 -0.0026
vn 0.3746 0.1295 -0.9181
vn -0.2110 -0.0183 -0.9773
vn -0.0994 -0.9950 0.0003
vn -0.0280 0.1011 -0.9945
vn -0.9805 0.1913 -0.0452
vn -0.1816 -0.9834 0.0033
vn 0.0155 0.9999 0.0024
vn -0.9787 -0.1993 -0.0493
vn -0.1382 0.5912 -0.7946
vn 0.0026 0.3013 -0.9535
vn 0.3051 -0.1777 -0.9356
vn 0.9743 0.2251 0.0077
vn 0.0090 -0.1202 -0.9927
vn -0.0631 0.0527 -0.9966
vn -0.0103 -0.0403 -0.9991
vn -0.0014 0.0936 -0.9956
vn -0.4824 0.8752 0.0360
vn 0.0079 0.6454 0.7638
vn -0.0001 0.9983 0.0585
vn 0.4523 0.8915 0.0256
vn 0.0078 0.5432 0.8396
vn 0.0270 0.6312 0.7751
vn 0.0031 -1.0000 -0.0023
vn 0.1208 0.9921 0.0328
vn -0.0084 -1.0000 -0.0022
vn 0.3752 0.9263 0.0341
vn -0.0402 0.3421 0.9388
vn 0.2040 0.9761 0.0744
vn 1.0000 0.0078 0.0058
vn 0.0068 -1.0000 0.0026
vn 0.3746 0.1295 0.9181
vn -0.2110 -0.0183 0.9773
vn -0.0994 -0.9950 -0.0003
vn -0.0280 0.1011 0.9945
vn -0.9805 0.1913 0.0452
vn -0.1816 -0.9834 -0.0033
vn 0.0155 0.9999 -0.0024
vn -0.9787 -0.1993 0.0493
vn -0.1382 0.5912 0.7946
vn 0.0026 0.3013 0.9535
vn 0.3051 -0.1777 0.9356
vn 0.9743 0.2251 -0.0077
vn 0.0090 -0.1202 0.9927
vn -0.0631 0.0527 0.9966
vn -0.0103 -0.0403 0.9991
vn -0.0014 0.0936 0.9956
usemtl Car
s off
f 32/1/1 4/2/1 14/3/1 52/4/1
f 18/5/2 4/6/2 2/7/2 17/8/2
f 29/9/3 31/10/3 3/11/3 1/12/3
f 32/1/4 30/13/4 2/14/4 4/2/4
f 2/14/5 30/13/5 36/15/5 6/16/5
f 19/17/6 6/18/6 8/19/6 20/20/6
f 29/9/3 1/12/3 5/21/3 35/22/3
f 17/8/7 2/7/7 6/18/7 19/17/7
f 39/23/8 7/24/8 9/25/8 43/26/8
f 6/16/9 36/15/9 40/27/9 8/28/9
f 35/22/10 5/21/10 7/24/10 39/23/10
f 10/29/11 44/30/11 48/31/11 12/32/11
f 20/20/12 8/19/12 10/33/12 21/34/12
f 8/28/13 40/27/13 44/30/13 10/29/13
f 22/35/14 12/36/14 48/37/14 63/38/14
f 43/26/15 9/25/15 11/39/15 47/40/15
f 21/34/16 10/33/16 12/41/16 22/42/16
f 23/43/17 13/44/17 15/45/17 24/46/17
f 3/11/18 31/10/18 51/47/18 13/48/18
f 18/5/19 3/49/19 13/44/19 23/43/19
f 66/50/20 56/51/20 16/52/20 24/53/20
f 13/48/21 51/47/21 55/54/21 15/55/21
f 52/4/22 14/3/22 16/56/22 56/57/22
f 55/58/23 66/50/23 24/53/23 15/59/23
f 4/6/24 18/5/24 23/43/24 14/60/24
f 14/60/25 23/43/25 24/46/25 16/61/25
f 9/62/26 21/34/26 22/42/26 11/63/26
f 11/64/27 22/35/27 63/38/27 47/65/27
f 7/66/28 20/20/28 21/34/28 9/62/28
f 1/67/29 17/8/29 19/17/29 5/68/29
f 5/68/30 19/17/30 20/20/30 7/66/30
f 3/49/31 18/5/31 17/8/31 1/67/31
f 32/1/32 52/4/32 50/69/32 28/70/32
f 58/71/33 57/72/33 26/73/33 28/74/33
f 29/9/3 25/75/3 27/76/3 31/10/3
f 32/1/34 28/70/34 26/77/34 30/13/34
f 26/77/35 34/78/35 36/15/35 30/13/35
f 59/79/36 60/80/36 38/81/36 34/82/36
f 29/9/3 35/22/3 33/83/3 25/75/3
f 57/72/37 59/79/37 34/82/37 26/73/37
f 39/23/38 43/26/38 41/84/38 37/85/38
f 34/78/39 38/86/39 40/27/39 36/15/39
f 35/22/40 39/23/40 37/85/40 33/83/40
f 42/87/41 46/88/41 48/31/41 44/30/41
f 60/80/42 61/89/42 42/90/42 38/81/42
f 38/86/43 42/87/43 44/30/43 40/27/43
f 62/91/44 63/38/44 48/37/44 46/92/44
f 43/26/45 47/40/45 45/93/45 41/84/45
f 61/89/46 62/94/46 46/95/46 42/90/46
f 64/96/47 65/97/47 53/98/47 49/99/47
f 27/76/48 49/100/48 51/47/48 31/10/48
f 58/71/49 64/96/49 49/99/49 27/101/49
f 66/50/50 65/102/50 54/103/50 56/51/50
f 49/100/51 53/104/51 55/54/51 51/47/51
f 52/4/52 56/57/52 54/105/52 50/69/52
f 55/58/53 53/106/53 65/102/53 66/50/53
f 28/74/54 50/107/54 64/96/54 58/71/54
f 50/107/55 54/108/55 65/97/55 64/96/55
f 41/109/56 45/110/56 62/94/56 61/89/56
f 45/111/57 47/65/57 63/38/57 62/91/57
f 37/112/58 41/109/58 61/89/58 60/80/58
f 25/113/59 33/114/59 59/79/59 57/72/59
f 33/114/60 37/112/60 60/80/60 59/79/60
f 27/101/61 25/113/61 57/72/61 58/71/61
o Wheels.Back_Cylinder.003
v -1.488542 -0.096768 1.075000
v -1.488543 -0.096768 -1.075000
v -1.673542 -0.146338 1.075000
v -1.673543 -0.146338 -1.075000
v -1.808971 -0.281768 1.075000
v -1.808972 -0.281768 -1.075000
v -1.858542 -0.466768 1.075000
v -1.858543 -0.466768 -1.075000
v -1.808971 -0.651768 1.075000
v -1.808972 -0.651768 -1.075000
v -1.673542 -0.787197 1.075000
v -1.673543 -0.787197 -1.075000
v -1.488542 -0.836768 1.075000
v -1.488543 -0.836768 -1.075000
v -1.303542 -0.787197 1.075000
v -1.303543 -0.787197 -1.075000
v -1.168113 -0.651768 1.075000
v -1.168113 -0.651768 -1.075000
v -1.118542 -0.466768 1.075000
v -1.118543 -0.466768 -1.075000
v -1.168113 -0.281768 1.075000
v -1.168113 -0.281768 -1.075000
v -1.303542 -0.146338 1.075000
v -1.303542 -0.146339 -1.075000
vt 0.091579 0.949289
vt 0.091579 0.988730
vt 0.085005 0.988730
vt 0.085005 0.949289
vt 0.078432 0.988730
vt 0.078432 0.949289
vt 0.071858 0.988730
vt 0.071858 0.949289
vt 0.065285 0.988730
vt 0.065285 0.949289
vt 0.058711 0.988730
vt 0.058711 0.949289
vt 0.052138 0.988730
vt 0.052138 0.949289
vt 0.045564 0.988730
vt 0.045564 0.949289
vt 0.038990 0.988730
vt 0.038990 0.949289
vt 0.032417 0.988730
vt 0.032417 0.949289
vt 0.025843 0.988730
vt 0.025843 0.949289
vt 0.745243 0.919780
vt 0.503461 0.984566
vt 0.261677 0.919780
vt 0.084680 0.742783
vt 0.019895 0.501000
vt 0.084680 0.259217
vt 0.261678 0.082219
vt 0.503461 0.017434
vt 0.745243 0.082220
vt 0.922241 0.259217
vt 0.987026 0.501000
vt 0.922241 0.742783
vt 0.019270 0.988730
vt 0.019270 0.949289
vt 0.012696 0.988730
vt 0.012696 0.949289
vt 0.503461 0.984566
vt 0.745243 0.919780
vt 0.922241 0.742783
vt 0.987026 0.501000
vt 0.922241 0.259217
vt 0.745243 0.082220
vt 0.503461 0.017434
vt 0.261678 0.082219
vt 0.084680 0.259217
vt 0.019895 0.501000
vt 0.084680 0.742783
vt 0.261678 0.919780
vn -0.2588 0.9659 0.0000
vn -0.7071 0.7071 0.0000
vn -0.9659 0.2588 0.0000
vn -0.9659 -0.2588 0.0000
vn -0.7071 -0.7071 0.0000
vn -0.2588 -0.9659 0.0000
vn 0.2588 -0.9659 -0.0000
vn 0.7071 -0.7071 -0.0000
vn 0.9659 -0.2588 -0.0000
vn 0.9659 0.2588 -0.0000
vn -0.0000 -0.0000 -1.0000
vn 0.7071 0.7071 -0.0000
vn 0.2588 0.9659 -0.0000
vn 0.0000 0.0000 1.0000
usemtl Wheels
s off
f 67/115/62 68/116/62 70/117/62 69/118/62
f 69/118/63 70/117/63 72/119/63 71/120/63
f 71/120/64 72/119/64 74/121/64 73/122/64
f 73/122/65 74/121/65 76/123/65 75/124/65
f 75/124/66 76/123/66 78/125/66 77/126/66
f 77/126/67 78/125/67 80/127/67 79/128/67
f 79/128/68 80/127/68 82/129/68 81/130/68
f 81/130/69 82/129/69 84/131/69 83/132/69
f 83/132/70 84/131/70 86/133/70 85/134/70
f 85/134/71 86/133/71 88/135/71 87/136/71
f 70/137/72 68/138/72 90/139/72 88/140/72 86/141/72 84/142/72 82/143/72 80/144/72 78/145/72 76/146/72 74/147/72 72/148/72
f 87/136/73 88/135/73 90/149/73 89/150/73
f 89/150/74 90/149/74 68/151/74 67/152/74
f 67/153/75 69/154/75 71/155/75 73/156/75 75/157/75 77/158/75 79/159/75 81/160/75 83/161/75 85/162/75 87/163/75 89/164/75
o Wheels.Front_Cylinder.001
v 1.430335 -0.096768 1.075000
v 1.430334 -0.096768 -1.075000
v 1.245335 -0.146338 1.075000
v 1.245334 -0.146338 -1.075000
v 1.109905 -0.281768 1.075000
v 1.109904 -0.281768 -1.075000
v 1.060335 -0.466768 1.075000
v 1.060334 -0.466768 -1.075000
v 1.109905 -0.651768 1.075000
v 1.109905 -0.651768 -1.075000
v 1.245335 -0.787197 1.075000
v 1.245334 -0.787197 -1.075000
v 1.430334 -0.836768 1.075000
v 1.430334 -0.836768 -1.075000
v 1.615335 -0.787197 1.075000
v 1.615334 -0.787197 -1.075000
v 1.750764 -0.651768 1.075000
v 1.750763 -0.651768 -1.075000
v 1.800335 -0.466768 1.075000
v 1.800334 -0.466768 -1.075000
v 1.750764 -0.281768 1.075000
v 1.750763 -0.281768 -1.075000
v 1.615335 -0.146338 1.075000
v 1.615334 -0.146339 -1.075000
vt 0.091579 0.949289
vt 0.091579 0.988730
vt 0.085005 0.988730
vt 0.085005 0.949289
vt 0.078432 0.988730
vt 0.078432 0.949289
vt 0.071858 0.988730
vt 0.071858 0.949289
vt 0.065285 0.988730
vt 0.065285 0.949289
vt 0.058711 0.988730
vt 0.058711 0.949289
vt 0.052138 0.988730
vt 0.052138 0.949289
vt 0.045564 0.988730
vt 0.045564 0.949289
vt 0.038990 0.988730
vt 0.038990 0.949289
vt 0.032417 0.988730
vt 0.032417 0.949289
vt 0.025843 0.988730
vt 0.025843 0.949289
vt 0.745243 0.919780
vt 0.503461 0.984566
vt 0.261677 0.919780
vt 0.084680 0.742783
vt 0.019895 0.501000
vt 0.084680 0.259217
vt 0.261678 0.082219
vt 0.503461 0.017434
vt 0.745243 0.082220
vt 0.922241 0.259217
vt 0.987026 0.501000
vt 0.922241 0.742783
vt 0.019270 0.988730
vt 0.019270 0.949289
vt 0.012696 0.988730
vt 0.012696 0.949289
vt 0.503461 0.984566
vt 0.745243 0.919780
vt 0.922241 0.742783
vt 0.987026 0.501000
vt 0.922241 0.259217
vt 0.745243 0.082220
vt 0.503461 0.017434
vt 0.261678 0.082219
vt 0.084680 0.259217
vt 0.019895 0.501000
vt 0.084680 0.742783
vt 0.261678 0.919780
vn -0.2588 0.9659 0.0000
vn -0.7071 0.7071 0.0000
vn -0.9659 0.2588 0.0000
vn -0.9659 -0.2588 0.0000
vn -0.7071 -0.7071 0.0000
vn -0.2588 -0.9659 0.0000
vn 0.2588 -0.9659 -0.0000
vn 0.7071 -0.7071 -0.0000
vn 0.9659 -0.2588 -0.0000
vn 0.9659 0.2588 -0.0000
vn -0.0000 -0.0000 -1.0000
vn 0.7071 0.7071 -0.0000
vn 0.2588 0.9659 -0.0000
vn 0.0000 0.0000 1.0000
usemtl Wheels
s off
f 91/165/76 92/166/76 94/167/76 93/168/76
f 93/168/77 94/167/77 96/169/77 95/170/77
f 95/170/78 96/169/78 98/171/78 97/172/78
f 97/172/79 98/171/79 100/173/79 99/174/79
f 99/174/80 100/173/80 102/175/80 101/176/80
f 101/176/81 102/175/81 104/177/81 103/178/81
f 103/178/82 104/177/82 106/179/82 105/180/82
f 105/180/83 106/179/83 108/181/83 107/182/83
f 107/182/84 108/181/84 110/183/84 109/184/84
f 109/184/85 110/183/85 112/185/85 111/186/85
f 94/187/86 92/188/86 114/189/86 112/190/86 110/191/86 108/192/86 106/193/86 104/194/86 102/195/86 100/196/86 98/197/86 96/198/86
f 111/186/87 112/185/87 114/199/87 113/200/87
f 113/200/88 114/199/88 92/201/88 91/202/88
f 91/203/89 93/204/89 95/205/89 97/206/89 99/207/89 101/208/89 103/209/89 105/210/89 107/211/89 109/212/89 111/213/89 113/214/89
