# Blender v2.91.0 OBJ File: 'GeneralStore.blend'
# www.blender.org
mtllib GeneralStore.mtl
o Ground_Plane
v -10.000000 0.000000 10.000000
v 10.000000 0.000000 10.000000
v -10.000000 0.000000 -10.000000
v 10.000000 0.000000 -10.000000
vt 0.000000 0.000000
vt 1.000000 0.000000
vt 1.000000 1.000000
vt 0.000000 1.000000
vn 0.0000 1.0000 0.0000
usemtl None
s off
f 1/1/1 2/2/1 4/3/1 3/4/1
o GeneralStore_Cube.001
v -7.600000 0.000000 10.000000
v -7.600000 9.000000 10.000000
v -7.600000 0.000000 -10.000000
v -7.600000 9.000000 -10.000000
v 7.600000 0.000000 10.000000
v 7.600000 9.000000 10.000000
v 7.600000 0.000000 -10.000000
v 7.600000 9.000000 -10.000000
v -7.600000 0.000000 -7.845468
v -7.600000 0.000000 7.845468
v -7.600000 9.000000 7.845468
v -7.600000 9.000000 -7.845468
v 7.600000 0.000000 7.845468
v 7.600000 0.000000 -7.845468
v 7.600000 9.000000 -7.845468
v 7.600000 9.000000 7.845468
v -7.600000 4.500000 10.000000
v -7.600000 4.500000 -10.000000
v 7.600000 4.500000 -10.000000
v 7.600000 4.500000 10.000000
v 7.600000 4.500000 -7.845468
v 7.600000 4.500000 7.845468
v -7.600000 4.500000 7.845468
v -7.600000 4.500000 -7.845468
v 7.099090 0.000000 7.845468
v 7.099090 0.000000 -7.845468
v 7.099090 4.500000 -7.845468
v 7.099090 4.500000 7.845468
v -7.600000 5.754191 10.000000
v -7.600000 5.754191 -10.000000
v 7.600000 5.754191 -10.000000
v 7.600000 5.754191 10.000000
v -7.600000 5.754191 7.845468
v -7.600000 5.754191 -7.845468
v 7.600000 5.754191 -7.845468
v 9.846613 4.500000 -7.845468
v 7.600000 5.754191 7.845468
v 9.846613 4.500000 7.845468
v -7.600000 7.874541 10.000000
v -7.600000 7.874541 -10.000000
v 7.600000 7.874541 -10.000000
v 7.600000 7.874541 10.000000
v 7.600000 7.874541 -7.845468
v 7.600000 7.874541 7.845468
v -7.600000 7.874541 7.845468
v -7.600000 7.874541 -7.845468
v 7.831333 7.874541 -7.845468
v 7.831333 5.754191 -7.845468
v 7.831333 7.874541 7.845468
v 7.831333 5.754191 7.845468
v 6.732865 0.000000 -10.000000
v -6.732865 0.000000 -10.000000
v -6.732865 9.000000 -10.000000
v 6.732865 9.000000 -10.000000
v -6.732865 0.000000 10.000000
v 6.732865 0.000000 10.000000
v 6.732865 9.000000 10.000000
v -6.732865 9.000000 10.000000
v -7.100000 9.000000 -9.500000
v 7.100000 9.000000 -9.500000
v -7.100000 9.000000 9.500000
v 7.100000 9.000000 9.500000
v 6.732865 4.500000 10.000000
v -6.732865 4.500000 10.000000
v -6.732865 4.500000 -10.000000
v 6.732865 4.500000 -10.000000
v 6.732865 5.754191 10.000000
v -6.732865 5.754191 10.000000
v -6.732865 5.754191 -10.000000
v 6.732865 5.754191 -10.000000
v 6.732865 7.874541 10.000000
v -6.732865 7.874541 10.000000
v -6.732865 7.874541 -10.000000
v 6.732865 7.874541 -10.000000
v -7.100000 8.209851 -9.500000
v 7.100000 8.209851 -9.500000
v -7.100000 8.209851 9.500000
v 7.100000 8.209851 9.500000
vt 0.004440 0.950148
vt 0.100560 0.950143
vt 0.100560 0.979976
vt 0.004440 0.979978
vt 0.998940 0.026521
vt 0.998940 0.646087
vt 0.001953 0.646086
vt 0.001953 0.026521
vt 0.129424 0.950142
vt 0.129424 0.979975
vt 0.225557 0.950140
vt 0.225557 0.979978
vt 0.254425 0.950140
vt 0.254425 0.979978
vt 0.776553 0.185143
vt 0.776553 0.362749
vt 0.729460 0.362749
vt -5.061221 0.749914
vt -5.061220 0.030432
vt 6.053655 0.030432
vt 6.053655 0.749915
vt 6.053655 1.273407
vt -5.061221 1.273406
vt 0.776111 0.582683
vt 0.731710 0.582683
vt 0.776111 0.394309
vt 0.996014 0.012951
vt 0.996014 0.990482
vt 0.006427 0.990482
vt 0.006427 0.012951
vt 0.553612 0.432197
vt 0.553612 0.392996
vt 0.587383 0.392996
vt 0.587383 0.432197
vt 0.627024 0.410879
vt 0.587823 0.410879
vt 0.587823 0.392996
vt 0.627024 0.392996
vt 0.041988 0.149441
vt 0.003794 0.150645
vt 0.002609 0.118438
vt 0.039995 0.117062
vt 0.931003 0.039421
vt 0.931003 0.000220
vt 0.948887 0.000220
vt 0.948887 0.039421
vt 0.283275 0.379219
vt 0.317265 0.388440
vt 0.273899 0.392556
vt 0.273982 0.369556
vt 0.633792 0.347171
vt 0.634963 0.365869
vt 0.599120 0.366910
vt 0.626283 0.355481
vt 0.273899 0.506052
vt 0.273899 0.432197
vt 0.307669 0.432197
vt 0.307669 0.506052
vt 0.036906 0.424388
vt 0.000220 0.422360
vt 0.001772 0.390887
vt 0.039384 0.392664
vt 0.273899 0.392996
vt 0.307669 0.392996
vt 0.307669 0.706480
vt 0.307669 0.549738
vt 0.553612 0.549738
vt 0.553612 0.706480
vt 0.273899 0.706480
vt 0.273899 0.549738
vt 0.160790 0.412170
vt 0.158980 0.132253
vt 0.169895 0.136275
vt 0.170826 0.408245
vt 0.242234 0.558906
vt 0.141115 0.444245
vt 0.266938 0.537120
vt 0.931003 0.313704
vt 0.931003 0.156962
vt 0.948886 0.156962
vt 0.948887 0.313704
vt 0.266118 0.018072
vt 0.144380 0.101082
vt 0.247771 0.000220
vt 0.901307 0.410879
vt 0.744565 0.410879
vt 0.744565 0.392996
vt 0.901307 0.392996
vt 0.587383 0.549738
vt 0.587383 0.706480
vt 0.273459 0.024898
vt 0.553612 0.506052
vt 0.273459 0.531620
vt 0.104902 0.431740
vt 0.111804 0.401050
vt 0.931003 0.113277
vt 0.948887 0.113277
vt 0.115185 0.142242
vt 0.108573 0.111003
vt 0.700880 0.410879
vt 0.700880 0.392996
vt 0.587383 0.506052
vt 0.700880 0.706480
vt 0.627024 0.706480
vt 0.627024 0.688596
vt 0.700880 0.688596
vt 0.635402 0.113277
vt 0.635402 0.039421
vt 0.653286 0.039421
vt 0.653286 0.113277
vt 0.744565 0.706480
vt 0.744565 0.688596
vt 0.635402 0.156962
vt 0.653286 0.156962
vt 0.901307 0.706480
vt 0.901307 0.688596
vt 0.635402 0.313704
vt 0.653286 0.313704
vt 0.591597 0.004336
vt 0.625587 0.013556
vt 0.282581 0.037295
vt 0.309743 0.025865
vt 0.309231 0.342396
vt 0.591273 0.330844
vt 0.634963 0.000220
vt 0.634879 0.023218
vt 0.275072 0.045604
vt 0.273901 0.026907
vt 0.635402 0.000220
vt 0.653286 0.000220
vt 0.587823 0.706480
vt 0.587823 0.688596
vt 0.273899 0.999780
vt 0.273899 0.706920
vt 0.571709 0.706920
vt 0.571709 0.999780
vt 0.317590 0.061931
vt 0.599631 0.050379
vn 0.0000 -1.0000 0.0000
vn 1.0000 0.0000 0.0000
vn 0.0000 0.0000 -1.0000
vn 0.0000 1.0000 0.0000
vn 0.0000 0.0000 1.0000
vn 0.4874 0.8732 0.0000
vn -1.0000 0.0000 0.0000
usemtl Sign
s off
f 41/5/2 39/6/2 52/7/2 54/8/2
f 52/9/3 51/10/3 53/11/3 54/12/3
f 39/6/4 47/13/4 51/14/4 52/7/4
f 47/13/5 48/15/5 53/16/5 51/14/5
f 48/15/6 41/17/6 54/18/6 53/16/6
usemtl RainCover
f 41/19/6 26/20/6 42/21/6
f 40/22/7 39/23/7 41/24/7 42/25/7
f 26/26/2 25/27/2 40/22/2 42/25/2
f 25/28/4 39/29/4 40/30/4
usemtl Entrance
f 30/31/3 31/32/3 32/33/3 29/34/3
usemtl Building
f 50/35/8 16/36/8 8/37/8 44/38/8
f 78/39/4 58/40/4 12/41/4 45/42/4
f 48/43/3 20/44/3 10/45/3 46/46/3
f 76/47/6 62/48/6 6/49/6 43/50/6
f 65/51/5 15/52/5 6/53/5 62/54/5
f 57/55/5 8/56/5 16/57/5 63/58/5
f 63/58/5 16/57/5 15/52/5 65/51/5
f 33/59/8 43/60/8 49/61/8 37/62/8
f 45/63/3 12/64/3 19/65/3 47/66/3
f 47/66/3 19/65/3 20/44/3 48/43/3
f 43/60/8 6/67/8 15/68/8 49/61/8
f 49/61/8 15/68/8 16/36/8 50/35/8
f 14/69/8 27/70/8 28/71/8 13/72/8
f 5/73/8 21/74/8 27/70/8 14/69/8
f 25/75/2 26/76/2 32/77/2 31/78/2
f 11/79/3 23/80/3 25/75/3 18/81/3
f 59/82/6 68/83/6 21/84/6 5/85/6
f 17/86/3 26/76/3 24/87/3 9/88/3
f 55/89/4 70/90/4 23/91/4 11/92/4
f 13/72/8 28/71/8 22/93/8 7/94/8
f 26/76/4 17/86/4 29/95/4 32/77/4
f 37/62/8 49/61/8 50/35/8 38/96/8
f 18/81/6 25/75/6 31/78/6 30/97/6
f 27/70/8 37/62/8 38/96/8 28/71/8
f 21/74/8 33/59/8 37/62/8 27/70/8
f 23/80/3 35/98/3 39/99/3 25/75/3
f 68/83/6 72/100/6 33/101/6 21/84/6
f 26/76/3 41/102/3 36/103/3 24/87/3
f 70/90/4 74/104/4 35/105/4 23/91/4
f 28/71/8 38/96/8 34/106/8 22/93/8
f 35/98/3 45/63/3 47/66/3 39/99/3
f 72/100/6 76/47/6 43/50/6 33/101/6
f 41/102/3 48/43/3 46/46/3 36/103/3
f 74/104/4 78/39/4 45/42/4 35/105/4
f 38/96/8 50/35/8 44/38/8 34/106/8
f 34/107/4 44/108/4 77/109/4 73/110/4
f 73/110/4 77/109/4 78/39/4 74/104/4
f 36/111/6 46/112/6 75/113/6 71/114/6
f 71/114/6 75/113/6 76/47/6 72/100/6
f 22/115/4 34/107/4 73/110/4 69/116/4
f 69/116/4 73/110/4 74/104/4 70/90/4
f 24/117/6 36/111/6 71/114/6 67/118/6
f 67/118/6 71/114/6 72/100/6 68/83/6
f 7/119/4 22/115/4 69/116/4 56/120/4
f 56/120/4 69/116/4 70/90/4 55/89/4
f 9/121/6 24/117/6 67/118/6 60/122/6
f 60/122/6 67/118/6 68/83/6 59/82/6
f 19/123/5 64/124/5 66/125/5 20/126/5
f 63/58/3 65/51/3 81/127/3 79/128/3
f 12/129/5 58/130/5 64/124/5 19/123/5
f 58/130/5 57/55/5 63/58/5 64/124/5
f 20/126/5 66/125/5 61/131/5 10/132/5
f 66/125/5 65/51/5 62/54/5 61/131/5
f 46/112/6 10/133/6 61/134/6 75/113/6
f 75/113/6 61/134/6 62/48/6 76/47/6
f 44/108/4 8/135/4 57/136/4 77/109/4
f 77/109/4 57/136/4 58/40/4 78/39/4
f 80/137/5 79/138/5 81/139/5 82/140/5
f 65/51/4 66/125/4 82/141/4 81/127/4
f 64/124/6 63/58/6 79/128/6 80/142/6
f 66/125/8 64/124/8 80/142/8 82/141/8
o AC_Unit_Cube.002
v -5.177382 8.209851 7.626325
v -5.177382 9.459851 7.626325
v -5.177382 8.209851 5.126325
v -5.177382 9.459851 5.126325
v -3.927382 8.209851 7.626325
v -3.927382 9.459851 7.626325
v -3.927382 8.209851 5.126325
v -3.927382 9.459851 5.126325
vt 0.003118 -0.001316
vt 0.003118 0.483087
vt 0.994278 0.483087
vt 0.994278 -0.001316
vt 0.997263 0.499481
vt 0.997264 0.990102
vt 0.506643 0.990102
vt 0.506643 0.499481
vt 0.999216 -0.005411
vt 0.999216 0.485880
vt -0.003123 0.485880
vt -0.003123 -0.005411
vt 0.491973 -0.001739
vt 0.491973 0.480906
vt 0.009329 0.480906
vt 0.009329 -0.001739
vt 0.993514 0.494016
vt 0.993514 0.994265
vt -0.000025 0.994265
vt -0.000024 0.494016
vn -1.0000 0.0000 0.0000
vn 0.0000 0.0000 -1.0000
vn 1.0000 0.0000 0.0000
vn 0.0000 0.0000 1.0000
vn 0.0000 1.0000 0.0000
usemtl AC
s off
f 83/143/9 84/144/9 86/145/9 85/146/9
f 85/147/10 86/148/10 90/149/10 89/150/10
f 89/151/11 90/152/11 88/153/11 87/154/11
f 87/155/12 88/156/12 84/157/12 83/158/12
f 90/159/13 86/160/13 84/161/13 88/162/13
