# Blender v2.91.0 OBJ File: 'LargeHouse.blend'
# www.blender.org
mtllib LargeHouse.mtl
o Cube_Cube.001
v -12.889585 0.000000 12.959805
v -12.889585 2.750000 12.959805
v -12.889585 0.000000 -9.963210
v -12.889585 2.750000 -9.963210
v 6.288948 0.000000 12.959805
v 6.288948 2.750000 12.959805
v -12.889585 0.000000 -3.601915
v -12.889585 2.750000 -3.601915
v 6.288948 0.000000 -3.601915
v 6.288948 2.750000 -3.601915
v 1.139717 0.000000 -9.963210
v 6.288948 0.000000 4.985401
v 1.139717 0.000000 12.959805
v 1.139717 2.750000 12.959805
v 1.139717 2.750000 -3.601915
v 1.139717 0.000000 -3.601915
v 0.139794 0.000000 -9.963210
v 0.139794 2.750000 -9.963210
v 0.139794 2.750000 -14.814421
v 1.139717 0.000000 -14.814421
v 0.139794 0.000000 -14.814421
v 0.139794 2.750000 -15.838638
v 1.139717 2.750000 -15.838638
v 1.139717 0.000000 -15.838638
v 0.139794 0.000000 -15.838638
v -12.889585 2.750000 4.985401
v 15.785778 0.000000 -14.814421
v 15.785778 2.750000 -15.838638
v 15.785778 0.000000 -15.838638
v 6.288948 2.750000 -9.963210
v 1.139717 2.750000 -9.963210
v 6.288948 2.750000 4.985401
v -12.889585 0.000000 4.985401
v 15.785778 2.750000 -14.814421
v 15.785778 2.750000 -9.963210
v 15.785778 2.750000 -3.601915
v 12.469015 2.750000 -3.601915
v 12.469015 2.750000 4.985401
v 9.378981 2.750000 -3.601915
v 9.378981 2.750000 -9.963210
v 9.378981 2.750000 4.985401
v 9.378981 2.750000 12.959805
v 14.785856 2.750000 -3.601915
v 15.785778 0.000000 -3.601915
v 14.785856 0.000000 -3.601915
v 14.785856 2.750000 -4.626132
v 15.785778 2.750000 -4.626132
v 15.785778 0.000000 -4.626132
v 14.785856 0.000000 -4.626132
v -12.889585 5.750000 -3.601915
v -12.889585 5.750000 -9.963210
v 6.288948 5.750000 4.985401
v 6.288948 5.750000 12.959805
v 1.139717 5.750000 12.959805
v -12.889585 5.750000 12.959805
v -12.889585 5.750000 4.985401
v 6.288948 5.750000 -3.601915
v 1.139717 5.750000 -9.963210
v 6.288948 5.750000 -9.963210
v 9.378981 5.750000 -3.601915
v 9.378981 5.750000 -9.963210
v 6.288948 3.000000 4.985401
v 6.288948 3.000000 12.959805
v 0.139794 3.000000 -14.814421
v 1.139717 3.000000 -14.814421
v 0.139794 3.000000 -9.963210
v 0.139794 3.000000 -15.838638
v 1.139717 3.000000 -15.838638
v 15.785778 3.000000 -15.838638
v 1.139717 3.000000 -9.963210
v 6.288948 3.000000 -9.963210
v 6.288948 3.000000 -14.814421
v 9.378981 3.000000 -14.814421
v 6.288948 3.000000 -3.601915
v 15.785778 3.000000 -9.963210
v 15.785778 3.000000 -3.601915
v 12.469015 3.000000 -3.601915
v 15.785778 3.000000 -14.814421
v 12.469015 3.000000 -9.963210
v 12.469015 3.000000 -14.814421
v 9.378981 3.000000 -3.601915
v 9.378981 3.000000 -9.963210
v 9.378981 3.000000 4.985401
v 12.469015 3.000000 4.985401
v 9.378981 3.000000 12.959805
v -13.584051 5.750000 -3.047643
v -13.584051 5.750000 -10.686235
v 6.983871 5.750000 5.260341
v 6.983871 5.750000 13.671865
v -3.783994 8.252537 13.671865
v -13.584051 5.750000 13.671865
v -13.584051 5.750000 5.260341
v -3.783994 8.252537 -3.047643
v 6.983871 5.750000 -3.047643
v -3.783994 8.252537 5.260342
v -3.783994 5.750000 -10.686235
v 6.983871 5.750000 -10.686235
v 9.905174 5.750000 -3.047643
v 9.905174 5.750000 -10.686235
v -3.783994 8.252537 -6.866940
v 9.905174 8.252537 -6.866940
v 6.983871 8.252537 -6.866940
v 15.785778 1.375000 -15.838638
v 15.785778 1.375000 -14.814421
v 1.139717 1.375000 -9.963210
v 1.139717 1.375000 -14.814421
v 1.139717 1.375000 -15.838638
v 0.139794 1.375000 -9.963210
v 0.139794 1.375000 -15.838638
v 0.139794 1.375000 -14.814421
v 15.785778 2.750000 -14.814421
v 14.785856 2.750000 -14.814421
v 15.785778 0.000000 -14.814421
v 14.785856 0.000000 -14.814421
v 14.785856 2.750000 -15.838638
v 15.785778 2.750000 -15.838638
v 15.785778 0.000000 -15.838638
v 14.785856 0.000000 -15.838638
v 14.785856 1.375000 -15.838638
v 14.785856 1.375000 -14.814421
v 6.288948 4.000000 12.959805
v 0.139794 4.000000 -14.814421
v 0.139794 4.000000 -9.963210
v 0.139794 4.000000 -15.838638
v 1.139717 4.000000 -15.838638
v 15.785778 4.000000 -15.838638
v 15.785778 4.000000 -9.963210
v 15.785778 4.000000 -3.601915
v 12.469015 4.000000 -3.601915
v 15.785778 4.000000 -14.814421
v 9.378981 4.000000 4.985401
v 12.469015 4.000000 4.985401
v 9.378981 4.000000 12.959805
vt 0.000000 0.000000
vt 0.000000 0.000000
vt 0.000000 0.000000
vt 0.000000 0.000000
vt 0.000000 0.000000
vt 0.375000 0.687500
vt 0.625000 0.687500
vt 0.625000 0.750000
vt 0.375000 0.750000
vt 0.375000 0.875000
vt 0.625000 0.875000
vt 0.625000 1.000000
vt 0.375000 1.000000
vt 0.625000 0.062500
vt 0.625000 0.000000
vt 0.625000 0.000000
vt 0.625000 0.062500
vt 0.625000 0.625000
vt 0.625000 0.625000
vt 0.625000 0.625000
vt 0.625000 0.625000
vt 0.000000 0.000000
vt 0.000000 0.000000
vt 0.375000 0.062500
vt 0.625000 0.125000
vt 0.375000 0.125000
vt 0.625000 0.687500
vt 0.625000 0.750000
vt 0.375000 0.250000
vt 0.625000 0.250000
vt 0.625000 0.358970
vt 0.481160 0.359601
vt 0.375000 0.360066
vt 0.375000 0.360066
vt 0.548120 0.359307
vt 0.562259 0.359245
vt 0.375000 0.360066
vt 0.559818 0.375000
vt 0.375000 0.375000
vt 0.524061 0.375000
vt 0.375000 0.375000
vt 0.625000 0.358970
vt 0.625000 0.358970
vt 0.625000 0.358970
vt 0.375000 0.000000
vt 0.625000 0.500000
vt 0.625000 0.500000
vt 0.625000 0.500000
vt 0.625000 0.500000
vt 0.375000 0.625000
vt 0.000000 0.000000
vt 0.000000 0.000000
vt 0.000000 0.000000
vt 0.000000 0.000000
vt 0.000000 0.000000
vt 0.000000 0.000000
vt 0.000000 0.000000
vt 0.000000 0.000000
vt 0.000000 0.000000
vt 0.000000 0.000000
vt 0.000000 0.000000
vt 0.000000 0.000000
vt 0.625000 0.358970
vt 0.625000 0.358970
vt 0.625000 0.875000
vt 0.000000 0.000000
vt 0.000000 0.000000
vt 0.375000 0.360066
vt 0.625000 0.358970
vt 0.625000 0.358970
vt 0.375000 0.360066
vt 0.625000 0.375000
vt 0.375000 0.375000
vt 0.250000 0.500000
vt 0.750000 0.500000
vt 0.766030 0.500000
vt 0.750000 0.500000
vt 0.250000 0.500000
vt 0.625000 0.000000
vt 0.625000 0.062500
vt 0.625000 0.750000
vt 0.000000 0.000000
vt 0.000000 0.000000
vt 0.000000 0.000000
vt 0.625000 0.687500
vt 0.625000 0.500000
vt 0.625000 0.500000
vt 0.625000 0.625000
vt 0.625000 0.625000
vt 0.625000 0.250000
vt 0.625000 0.125000
vt 0.625000 0.125000
vt 0.625000 0.250000
vt 0.625000 1.000000
vt 0.750000 0.500000
vt 0.750000 0.500000
vt 0.766030 0.500000
vt 0.750000 0.500000
vt 0.750000 0.500000
vt 0.766030 0.500000
vt 0.750000 0.500000
vt 0.766030 0.500000
vt 0.750000 0.500000
vt 0.750000 0.500000
vt 0.625000 0.500000
vt 0.625000 0.500000
vt 0.625000 0.500000
vt 0.625000 0.500000
vt 0.625000 0.500000
vt 0.625000 0.500000
vt 0.625000 0.625000
vt 0.625000 0.625000
vt 0.625000 0.500000
vt 0.625000 0.500000
vt 0.625000 0.687500
vt 0.625000 0.625000
vt 0.625000 0.687500
vt 0.625000 0.687500
vt 0.625000 0.625000
vt 0.625000 0.750000
vt 0.625000 0.750000
vt 0.000000 0.000000
vt 0.000000 0.000000
vt 0.625000 0.375000
vt 0.625000 0.375000
vt 0.625000 0.375000
vt 0.625000 0.375000
vt 0.000000 0.000000
vt 0.000000 0.000000
vt 0.750000 0.687500
vt 0.875000 0.687500
vt 0.875000 0.750000
vt 0.750000 0.750000
vt 0.750000 0.500000
vt 0.875000 0.500000
vt 0.875000 0.625000
vt 0.750000 0.625000
vt 0.750000 0.563370
vt 0.625000 0.559296
vt 0.625000 0.555710
vt 0.000000 0.000000
vt 0.000000 0.000000
vt 0.000000 0.000000
vt 0.625000 0.875000
vt 0.625000 1.000000
vt 0.000000 0.000000
vt 0.000000 0.000000
vt 0.000000 0.000000
vt 0.000000 0.000000
vt 0.000000 0.000000
vt 0.000000 0.000000
vt 0.000000 0.000000
vt 0.000000 0.000000
vt 0.000000 0.000000
vt 0.000000 0.000000
vt 0.000000 0.000000
vt 0.000000 0.000000
vt 0.000000 0.000000
vt 0.000000 0.000000
vt 0.542418 0.359332
vt 0.533258 0.359372
vt 0.375000 0.360066
vt 0.625000 0.358970
vt 0.625000 0.375000
vt 0.375000 0.375000
vt 0.250000 0.500000
vt 0.750000 0.500000
vt 0.766030 0.500000
vt 0.636862 0.453776
vt 0.375000 0.360066
vt 0.750000 0.500000
vt 0.250000 0.500000
vt 0.625000 0.358970
vt 0.625000 0.750000
vt 0.625000 0.750000
vt 0.625000 0.500000
vt 0.625000 0.625000
vt 0.625000 0.358970
vt 0.625000 0.358970
vt 0.625000 0.687500
vt 0.625000 0.625000
vt 0.000000 0.000000
vt 0.000000 0.000000
vt 0.750000 0.500000
vt 0.750000 0.500000
vt 0.766030 0.500000
vt 0.625000 0.500000
vt 0.000000 0.000000
vt 0.000000 0.000000
vt 0.625000 0.358970
vt 0.000000 0.000000
vt 0.000000 0.000000
vt 0.000000 0.000000
vn 1.0000 0.0000 0.0000
vn 0.0000 0.0000 1.0000
vn -1.0000 0.0000 0.0000
vn 0.0000 0.0000 -1.0000
vn 0.0000 -1.0000 0.0000
vn 0.0000 1.0000 0.0000
vn -0.2474 0.9689 0.0000
vn -0.1857 0.9697 -0.1588
vn 0.2264 0.9740 0.0000
vn 0.0000 0.8364 -0.5481
vn 0.0000 -0.4818 0.8763
vn 0.0000 0.8364 0.5481
vn 0.1098 0.9446 0.3095
vn 0.9331 -0.3596 0.0000
usemtl None
s off
f 15/1/1 16/2/1 11/3/1 105/4/1 31/5/1
f 12/6/1 32/7/1 6/8/1 5/9/1
f 13/10/2 14/11/2 2/12/2 1/13/2
f 26/14/3 2/15/3 55/16/3 56/17/3
f 10/18/2 39/19/2 60/20/2 57/21/2
f 16/2/4 15/1/4 10/22/4 9/23/4
f 33/24/3 26/14/3 8/25/3 7/26/3
f 6/8/1 32/7/1 52/27/1 53/28/1
f 5/9/2 6/8/2 14/11/2 13/10/2
f 3/29/4 4/30/4 18/31/4 108/32/4 17/33/4
f 21/34/3 110/35/3 109/36/3 25/37/3
f 17/33/3 108/32/3 110/35/3 21/34/3
f 25/37/4 109/36/4 107/38/4 24/39/4
f 24/39/4 107/38/4 103/40/4 29/41/4
f 19/42/3 18/31/3 66/43/3 64/44/3
f 1/45/3 2/15/3 26/14/3 33/24/3
f 40/46/4 30/47/4 59/48/4 61/49/4
f 9/50/1 10/18/1 32/7/1 12/6/1
f 37/51/2 36/52/2 76/53/2 77/54/2
f 38/55/4 41/56/4 83/57/4 84/58/4
f 34/59/1 28/60/1 69/61/1 78/62/1
f 22/63/3 19/42/3 64/44/3 67/64/3
f 14/11/2 6/8/2 53/28/2 54/65/2
f 42/66/1 41/56/1 83/57/1 85/67/1
f 45/68/3 43/69/3 46/70/3 49/71/3
f 49/71/4 46/70/4 47/72/4 48/73/4
f 44/74/2 36/75/2 43/76/2 45/68/2
f 47/77/1 36/75/1 44/74/1 48/78/1
f 56/17/5 55/16/5 91/79/5 92/80/5
f 91/79/6 89/81/6 53/28/6 55/16/6
f 96/82/2 87/83/2 97/84/2
f 53/28/5 52/27/5 88/85/5 89/81/5
f 61/49/5 59/48/5 97/86/5 99/87/5
f 7/26/3 8/25/3 4/30/3 3/29/3
f 57/21/5 60/20/5 98/88/5 94/89/5
f 51/90/5 50/91/5 86/92/5 87/93/5
f 2/12/2 14/11/2 54/65/2 55/94/2
f 30/47/4 31/95/4 58/96/4 59/48/4
f 32/7/1 10/18/1 57/21/1 52/27/1
f 39/19/1 40/46/1 61/49/1 60/20/1
f 8/25/3 26/14/3 56/17/3 50/91/3
f 66/97/6 70/98/6 65/99/6 64/100/6
f 64/100/6 65/99/6 68/101/6 67/102/6
f 68/101/6 65/99/6 78/103/6 69/104/6
f 70/98/6 71/105/6 72/106/6 65/99/6
f 80/107/6 79/108/6 75/109/6 78/110/6
f 4/30/3 8/25/3 50/91/3 51/90/3
f 79/108/6 77/111/6 76/112/6 75/109/6
f 73/113/6 82/114/6 79/108/6 80/107/6
f 83/115/5 81/116/5 77/111/5 84/117/5
f 62/118/5 74/119/5 81/116/5 83/115/5
f 72/106/6 71/105/6 82/114/6 73/113/6
f 62/118/6 63/120/6 85/121/6 83/115/6
f 35/122/1 34/59/1 78/62/1 75/123/1
f 23/124/4 22/63/4 67/64/4 68/125/4
f 82/114/6 81/116/6 77/111/6 79/108/6
f 28/126/4 23/124/4 68/125/4 69/127/4
f 6/128/2 42/66/2 85/67/2 63/129/2
f 37/51/3 38/55/3 84/58/3 77/54/3
f 18/31/4 4/30/4 51/90/4 58/96/4 31/95/4
f 95/130/7 92/131/7 91/132/7 90/133/7
f 36/52/1 35/122/1 75/123/1 76/53/1
f 96/134/8 87/135/8 86/136/8 93/137/8 100/138/8
f 88/85/9 95/130/9 90/133/9 89/81/9
f 94/89/9 93/137/9 95/130/9 88/85/9
f 93/137/7 86/136/7 92/131/7 95/130/7
f 97/86/10 96/134/10 100/138/10 102/139/10
f 97/86/10 102/139/10 101/140/10 99/87/10
f 90/141/4 89/142/4 91/143/4
f 52/27/5 57/21/5 94/89/5 88/85/5
f 50/91/5 56/17/5 92/80/5 86/92/5
f 54/65/11 53/28/11 89/81/11 90/144/11 91/145/11 55/94/11
f 87/93/5 97/86/5 59/48/5 51/90/5
f 58/96/5 51/90/5 87/93/5 96/134/5 97/86/5 59/48/5
f 101/140/12 102/139/12 94/89/12 98/88/12
f 102/139/13 100/138/13 93/137/13 94/89/13
f 60/20/14 61/49/14 99/87/14 101/140/14 98/88/14
f 98/146/6 99/147/6 61/148/6 60/149/6
f 99/147/3 98/146/3 101/150/3
f 103/151/1 104/152/1 27/153/1 29/154/1
f 106/155/1 105/4/1 11/3/1 20/156/1
f 104/152/2 106/155/2 20/156/2 27/153/2
f 109/36/3 110/35/3 19/42/3 22/63/3
f 110/35/6 108/32/6 105/4/6 106/155/6
f 107/38/4 109/36/4 22/63/4 23/124/4
f 65/99/2 64/100/2 110/35/2 106/155/2
f 107/157/1 68/158/1 65/159/1 106/155/1
f 107/157/6 106/155/6 120/160/6 119/161/6
f 118/162/4 119/161/4 115/163/4 116/164/4 117/165/4
f 113/166/2 111/167/2 112/168/2 120/169/2 114/170/2
f 116/171/1 111/167/1 113/166/1 117/172/1
f 108/32/4 18/31/4 31/5/4 105/4/4
f 119/161/3 120/160/3 112/173/3 115/163/3
f 63/120/2 85/121/2 133/174/2 121/175/2
f 76/112/1 75/109/1 127/176/1 128/177/1
f 66/43/1 64/44/1 122/178/1 123/179/1
f 77/111/3 84/117/3 132/180/3 129/181/3
f 83/57/3 85/67/3 133/182/3 131/183/3
f 69/104/4 68/101/4 125/184/4 126/185/4
f 68/101/4 67/102/4 124/186/4 125/184/4
f 75/109/1 78/110/1 130/187/1 127/176/1
f 69/61/3 78/62/3 130/188/3 126/189/3
f 64/44/1 67/64/1 124/190/1 122/178/1
f 76/53/4 77/54/4 129/191/4 128/192/4
f 83/57/2 84/58/2 132/193/2 131/183/2
