# Blender v2.91.0 OBJ File: 'Road-Straight.blend'
# www.blender.org
mtllib Road-Straight.mtl
o Plane.001
v -5.918084 0.277941 9.999999
v 5.918084 0.277941 9.999999
v -5.918084 0.277941 -9.999999
v 5.918084 0.277941 -9.999999
v -3.507751 0.096979 9.999999
v 3.507751 0.096979 9.999999
v 3.507751 0.096979 -9.999999
v -3.507751 0.096979 -9.999999
v -3.787544 0.277941 -9.999999
v -3.787544 0.277941 9.999999
v 3.787544 0.277941 9.999999
v 3.787544 0.277941 -9.999999
v -5.918084 0.000000 9.999999
v 5.918084 0.000000 9.999999
v -5.918084 0.000000 -9.999999
v 5.918084 0.000000 -9.999999
vt 0.916667 0.000000
vt 1.000000 0.000000
vt 1.000000 1.000000
vt 0.916667 1.000000
vt 0.083333 0.000000
vt 0.166667 0.000000
vt 0.166667 1.000000
vt 0.083333 1.000000
vt 0.833333 0.000000
vt 0.833333 1.000000
vt 0.000000 0.000000
vt 0.000000 1.000000
vt 1.000000 0.000000
vt 1.000000 1.000000
vt 0.000000 1.000000
vt 0.000000 0.000000
vn 0.0000 1.0000 0.0000
vn 0.5431 0.8397 0.0000
vn -0.5431 0.8397 0.0000
vn 1.0000 0.0000 0.0000
vn -1.0000 0.0000 0.0000
usemtl None
s off
f 11/1/1 2/2/1 4/3/1 12/4/1
f 10/5/2 5/6/2 8/7/2 9/8/2
f 5/6/1 6/9/1 7/10/1 8/7/1
f 1/11/1 10/5/1 9/8/1 3/12/1
f 6/9/3 11/1/3 12/4/3 7/10/3
f 4/3/4 2/2/4 14/13/4 16/14/4
f 1/11/5 3/12/5 15/15/5 13/16/5
