# Blender v2.91.0 OBJ File: 'Road-Corner.blend'
# www.blender.org
mtllib Road-Corner.mtl
o Road_Plane.001
v 9.999999 0.277941 5.918084
v 9.999999 0.277941 -5.918084
v 9.999999 0.096979 3.507751
v 9.999999 0.096979 -3.507751
v 9.999999 0.277941 3.787544
v 9.999999 0.277941 -3.787544
v 9.999999 0.000000 5.918084
v 9.999999 0.000000 -5.918084
v -5.918084 0.277941 9.999999
v 5.918084 0.277941 9.999999
v -3.507751 0.096979 9.999999
v 3.507751 0.096979 9.999999
v -3.787544 0.277941 9.999999
v 3.787544 0.277941 9.999999
v -5.918084 0.000000 9.999999
v 5.918084 0.000000 9.999999
v 5.918084 0.277941 3.787544
v 5.918084 0.096979 3.507751
v 5.918084 0.096979 -3.507751
v 5.918084 0.277941 -3.787544
v 5.918084 0.277941 -5.918084
v 5.918084 0.000000 -5.918084
v -5.918084 0.277941 5.918084
v -3.787544 0.277941 5.918084
v 3.787544 0.277941 5.918084
v 5.918084 0.277941 5.918084
v 3.507751 0.096979 5.918084
v -5.918084 0.000000 5.918084
v -3.507751 0.096979 5.918084
v 5.918084 0.000000 5.918084
v 5.356256 0.277941 3.787544
v 3.787544 0.277941 5.356257
v 4.571900 0.277941 3.997711
v 3.997712 0.277941 4.571900
v 3.507751 0.096979 5.076464
v 5.076464 0.096979 3.507751
v 3.507751 0.096979 2.306392
v 2.306392 0.096979 3.507751
v 3.765774 0.096979 4.347353
v 4.347353 0.096979 3.765774
v 3.507751 0.277941 -5.918084
v 3.507751 0.096979 -3.507751
v 3.507751 0.277941 -3.787544
v 3.507751 0.000000 -5.918084
v -3.787544 0.277941 3.507751
v -5.918084 0.277941 3.507751
v -3.507751 0.096979 3.507751
v -5.918084 0.000000 3.507751
v -3.787544 0.277941 1.621733
v 1.659239 0.277941 -3.787544
v -3.574929 0.277941 0.216366
v -2.741153 0.277941 -1.420012
v -1.442516 0.277941 -2.718648
v 0.193862 0.277942 -3.552425
v 1.659239 0.096979 -3.507751
v -3.507751 0.096980 1.621733
v 0.256922 0.096979 -3.241093
v -1.261887 0.096980 -2.467221
v -2.467221 0.096980 -1.261888
v -3.241093 0.096980 0.256922
v 1.438045 0.277941 -5.918084
v -5.918084 0.277941 1.438045
v -0.835124 0.277941 -5.558050
v -2.885779 0.277941 -4.513189
v -4.513189 0.277941 -2.885779
v -5.558050 0.277941 -0.835124
v -5.918084 0.000000 1.438045
v 1.438045 0.000000 -5.918084
v -5.558050 0.000000 -0.835124
v -4.513189 0.000000 -2.885779
v -2.885779 0.000000 -4.513189
v -0.835124 0.000000 -5.558050
vt 0.916667 0.204096
vt 0.916667 0.000000
vt 1.000000 0.000000
vt 1.000000 0.204096
vt 0.083333 0.000000
vt 0.166667 0.000000
vt 0.166667 0.204096
vt 0.083333 0.204096
vt 0.833333 0.000000
vt 0.833333 0.204096
vt 0.000000 0.204096
vt 0.000000 0.000000
vt 1.000000 0.000000
vt 1.000000 0.204096
vt 0.000000 0.000000
vt 0.000000 0.204096
vt 0.916667 0.204096
vt 0.916667 0.000000
vt 1.000000 0.000000
vt 1.000000 0.204096
vt 0.083333 0.204096
vt 0.083333 0.000000
vt 0.166667 0.000000
vt 0.166667 0.204096
vt 0.833333 0.000000
vt 0.833333 0.204096
vt 0.000000 0.204096
vt 0.000000 0.000000
vt 1.000000 0.000000
vt 1.000000 0.204096
vt 0.000000 0.000000
vt 0.000000 0.204096
vt 0.916667 0.204096
vt 0.833333 0.204096
vt 0.129126 0.158124
vt 0.268636 0.204096
vt 1.000000 0.310623
vt 0.978025 0.310623
vt 0.894906 0.306208
vt 0.625403 0.306208
vt 0.241727 0.310623
vt 0.000000 0.310623
vt 0.000000 0.204096
vt 0.000000 0.204096
vt 0.166667 0.204096
vt 0.083333 0.204096
vt 0.017596 0.204096
vt 0.166667 0.204096
vt 0.166667 0.204096
vt 0.280829 0.204096
vt 0.166667 0.204096
vt 0.960801 0.204096
vt 0.877468 0.204096
vt 0.083333 0.204096
vt 0.083333 0.204096
vt 0.039199 0.204096
vt 0.122532 0.204096
vt 0.756617 0.204096
vt 0.775520 0.204096
vt 0.916667 0.204096
vt 0.833333 0.204096
vt 0.647172 0.158502
vt 0.663744 0.173567
vt 0.490565 0.162822
vt 0.295683 0.123319
vt 0.286469 0.138458
vt 0.100280 0.122800
vt 0.000000 0.204096
vt 0.000000 0.204096
vt 0.605233 0.204096
vt 0.431247 0.204070
vt 0.287665 0.203639
vt 0.074490 0.203051
vt 0.021350 0.203772
vt 0.432703 0.204096
vt 0.568909 0.193865
vt 0.718142 0.181014
vt 0.885858 0.204096
vt 0.903592 0.204096
vt 0.916667 0.204096
vt 0.833333 0.204096
vt 0.286441 0.168394
vt 0.000000 0.204096
vt 0.000000 0.204096
vt 0.243405 0.204096
vt 0.408012 0.204096
vt 0.590481 0.204096
vn 0.0000 1.0000 0.0000
vn 0.0000 0.8397 -0.5431
vn 0.0000 0.8397 0.5431
vn 0.0000 0.0000 -1.0000
vn 0.0000 0.0000 1.0000
vn 0.5431 0.8397 0.0000
vn -0.5431 0.8397 0.0000
vn 1.0000 0.0000 0.0000
vn -1.0000 0.0000 0.0000
vn -0.4714 0.8698 -0.1458
vn -0.3458 0.8723 -0.3458
vn -0.1458 0.8698 -0.4714
vn 0.5018 0.8606 0.0868
vn 0.4429 0.8677 0.2257
vn 0.3604 0.8604 0.3604
vn 0.2311 0.8608 0.4535
vn 0.0898 0.8536 0.5131
vn -0.9877 0.0000 -0.1564
vn -0.8910 0.0000 -0.4540
vn -0.7071 0.0000 -0.7071
vn -0.4540 0.0000 -0.8910
vn -0.1564 0.0000 -0.9877
usemtl None
s off
f 20/1/1 6/2/1 2/3/1 21/4/1
f 5/5/2 3/6/2 18/7/2 17/8/2
f 18/7/1 3/6/1 4/9/1 19/10/1
f 26/11/1 1/12/1 5/5/1 17/8/1
f 19/10/3 4/9/3 6/2/3 20/1/3
f 2/3/4 8/13/4 22/14/4 21/4/4
f 7/15/5 1/12/5 26/11/5 30/16/5
f 25/17/1 14/18/1 10/19/1 26/20/1
f 24/21/6 13/22/6 11/23/6 29/24/6
f 29/24/1 11/23/1 12/25/1 27/26/1
f 23/27/1 9/28/1 13/22/1 24/21/1
f 27/26/7 12/25/7 14/18/7 25/17/7
f 10/19/8 16/29/8 30/30/8 26/20/8
f 15/31/9 9/28/9 23/27/9 28/32/9
f 27/26/7 25/17/7 32/33/7 35/34/7
f 24/21/6 29/24/6 47/35/6 45/36/6
f 17/37/1 31/38/1 33/39/1 34/40/1 32/41/1 25/42/1 26/20/1
f 23/27/9 46/43/9 48/44/9 28/32/9
f 17/8/2 18/7/2 36/45/2 31/46/2
f 35/47/1 39/48/1 40/49/1 36/45/1 37/50/1 38/51/1
f 35/34/10 32/33/10 34/52/10 39/53/10
f 39/54/11 34/55/11 33/56/11 40/57/11
f 40/57/12 33/56/12 31/46/12 36/45/12
f 21/4/4 22/14/4 44/58/4 41/59/4
f 21/4/1 41/59/1 43/60/1 20/1/1
f 19/10/3 20/1/3 43/60/3 42/61/3
f 55/62/1 57/63/1 58/64/1 59/65/1 60/66/1 56/67/1 47/35/1 38/51/1 37/50/1 42/61/1
f 48/44/9 46/43/9 62/68/9 67/69/9
f 19/10/1 42/61/1 37/50/1 36/45/1 18/7/1
f 43/60/1 41/59/1 61/70/1 63/71/1 64/72/1 65/73/1 66/74/1 62/68/1 46/43/1 45/36/1 49/75/1 51/76/1 52/77/1 53/78/1 54/79/1 50/80/1
f 27/26/1 35/34/1 38/51/1 47/35/1 29/24/1
f 42/61/3 43/60/3 50/80/3 55/81/3
f 45/36/1 46/43/1 23/27/1 24/21/1
f 49/75/13 56/82/13 60/66/13 51/76/13
f 51/76/14 60/66/14 59/65/14 52/77/14
f 52/77/15 59/65/15 58/64/15 53/78/15
f 53/78/16 58/64/16 57/63/16 54/79/16
f 54/79/17 57/63/17 55/81/17 50/80/17
f 45/36/6 47/35/6 56/82/6 49/75/6
f 67/69/18 62/68/18 66/74/18 69/83/18
f 69/83/19 66/74/19 65/73/19 70/84/19
f 70/84/20 65/73/20 64/72/20 71/85/20
f 71/85/21 64/72/21 63/71/21 72/86/21
f 72/86/22 63/71/22 61/70/22 68/87/22
f 41/59/4 44/58/4 68/87/4 61/70/4
l 53 64
l 52 65
l 49 62
l 51 66
l 50 61
l 54 63
