# Blender v2.91.0 OBJ File: 'Road-Intersection.blend'
# www.blender.org
mtllib Road-Intersection.mtl
o Road_Plane.001
v 9.999999 0.277941 5.918084
v 9.999999 0.277941 -5.918084
v -9.999999 0.277941 5.918084
v -9.999999 0.277941 -5.918084
v 9.999999 0.096979 3.507751
v 9.999999 0.096979 -3.507751
v -9.999999 0.096979 -3.507751
v -9.999999 0.096979 3.507751
v -9.999999 0.277941 3.787544
v 9.999999 0.277941 3.787544
v 9.999999 0.277941 -3.787544
v -9.999999 0.277941 -3.787544
v 9.999999 0.000000 5.918084
v 9.999999 0.000000 -5.918084
v -9.999999 0.000000 5.918084
v -9.999999 0.000000 -5.918084
v -5.918084 0.277941 9.999999
v 5.918084 0.277941 9.999999
v -5.918084 0.277941 -9.999999
v 5.918084 0.277941 -9.999999
v -3.507751 0.096979 9.999999
v 3.507751 0.096979 9.999999
v 3.507751 0.096979 -9.999999
v -3.507751 0.096979 -9.999999
v -3.787544 0.277941 -9.999999
v -3.787544 0.277941 9.999999
v 3.787544 0.277941 9.999999
v 3.787544 0.277941 -9.999999
v -5.918084 0.000000 9.999999
v 5.918084 0.000000 9.999999
v -5.918084 0.000000 -9.999999
v 5.918084 0.000000 -9.999999
v -5.918084 0.277941 3.787544
v 5.918084 0.277941 3.787544
v -5.918084 0.096979 3.507751
v 5.918084 0.096979 3.507751
v -5.918084 0.096979 -3.507751
v 5.918084 0.096979 -3.507751
v -5.918084 0.277941 -3.787544
v 5.918084 0.277941 -3.787544
v -3.787544 0.277941 -5.918084
v -5.918084 0.277941 -5.918084
v 3.787544 0.277941 -5.918084
v 5.918084 0.277941 -5.918084
v -3.507751 0.096979 -5.918084
v -5.918084 0.000000 -5.918084
v 5.918084 0.000000 -5.918084
v 3.507751 0.096979 -5.918084
v -5.918084 0.277941 5.918084
v -3.787544 0.277941 5.918084
v 3.787544 0.277941 5.918084
v 5.918084 0.277941 5.918084
v 3.507751 0.096979 5.918084
v -5.918084 0.000000 5.918084
v -3.507751 0.096979 5.918084
v 5.918084 0.000000 5.918084
v -3.787544 0.277941 5.356256
v -5.356257 0.277941 3.787544
v -3.997711 0.277941 4.571900
v -4.571900 0.277941 3.997712
v 3.787544 0.277941 -5.356256
v 5.356257 0.277941 -3.787544
v 3.997711 0.277941 -4.571900
v 4.571900 0.277941 -3.997712
v -5.356256 0.277941 -3.787544
v -3.787544 0.277941 -5.356257
v -4.571900 0.277941 -3.997711
v -3.997712 0.277941 -4.571900
v -5.076464 0.096979 3.507751
v -3.507751 0.096979 5.076464
v -2.306392 0.096979 3.507751
v -3.507751 0.096979 2.306392
v -4.347353 0.096979 3.765774
v -3.765774 0.096979 4.347353
v 5.356256 0.277941 3.787544
v 3.787544 0.277941 5.356257
v 4.571900 0.277941 3.997711
v 3.997712 0.277941 4.571900
v 3.507751 0.096979 5.076464
v 5.076464 0.096979 3.507751
v 3.507751 0.096979 2.306392
v 2.306392 0.096979 3.507751
v 3.765774 0.096979 4.347353
v 4.347353 0.096979 3.765774
v 5.076464 0.096979 -3.507751
v 3.507751 0.096979 -5.076464
v 2.306392 0.096979 -3.507751
v 3.507751 0.096979 -2.306392
v 4.347353 0.096979 -3.765774
v 3.765774 0.096979 -4.347353
v -3.507751 0.096979 -5.076464
v -5.076464 0.096979 -3.507751
v -3.507751 0.096979 -2.306392
v -2.306392 0.096979 -3.507751
v -3.765774 0.096979 -4.347353
v -4.347353 0.096979 -3.765774
vt 1.000000 0.795904
vt 1.000000 1.000000
vt 0.916667 1.000000
vt 0.916667 0.795904
vt 0.916667 0.204096
vt 0.916667 0.000000
vt 1.000000 0.000000
vt 1.000000 0.204096
vt 0.166667 1.000000
vt 0.083333 1.000000
vt 0.083333 0.795904
vt 0.166667 0.795904
vt 0.083333 0.000000
vt 0.166667 0.000000
vt 0.166667 0.204096
vt 0.083333 0.204096
vt 0.833333 0.795904
vt 0.833333 1.000000
vt 0.833333 0.000000
vt 0.833333 0.204096
vt 0.000000 1.000000
vt 0.000000 0.795904
vt 0.000000 0.204096
vt 0.000000 0.000000
vt 1.000000 1.000000
vt 1.000000 0.795904
vt 1.000000 0.000000
vt 1.000000 0.204096
vt 0.000000 1.000000
vt 0.000000 0.795904
vt 0.000000 0.000000
vt 0.000000 0.204096
vt 1.000000 0.795904
vt 1.000000 1.000000
vt 0.916667 1.000000
vt 0.916667 0.795904
vt 0.916667 0.204096
vt 0.916667 0.000000
vt 1.000000 0.000000
vt 1.000000 0.204096
vt 0.166667 0.795904
vt 0.166667 1.000000
vt 0.083333 1.000000
vt 0.083333 0.795904
vt 0.083333 0.204096
vt 0.083333 0.000000
vt 0.166667 0.000000
vt 0.166667 0.204096
vt 0.833333 0.795904
vt 0.833333 1.000000
vt 0.833333 0.000000
vt 0.833333 0.204096
vt 0.000000 1.000000
vt 0.000000 0.795904
vt 0.000000 0.204096
vt 0.000000 0.000000
vt 1.000000 1.000000
vt 1.000000 0.795904
vt 1.000000 0.000000
vt 1.000000 0.204096
vt 0.000000 1.000000
vt 0.000000 0.795904
vt 0.000000 0.000000
vt 0.000000 0.204096
vt 0.083333 0.795904
vt 0.166667 0.795904
vt 0.916667 0.204096
vt 0.833333 0.204096
vt 0.916667 0.204096
vt 0.833333 0.204096
vt 0.833333 0.795904
vt 0.916667 0.795904
vt 0.083333 0.332065
vt 0.075113 0.489054
vt 0.052654 0.517764
vt 0.021975 0.410501
vt 0.000000 0.310623
vt 0.833333 0.795904
vt 0.916667 0.795904
vt 0.719171 0.204096
vt 0.280829 0.204096
vt 0.166667 0.204096
vt 1.000000 0.310623
vt 0.978025 0.310623
vt 0.894906 0.306208
vt 0.625403 0.306208
vt 0.241727 0.310623
vt 0.000000 0.310623
vt 0.083333 0.795904
vt 0.166667 0.795904
vt 0.916667 0.667935
vt 0.924887 0.510946
vt 0.947346 0.482237
vt 0.978025 0.589499
vt 1.000000 0.689377
vt 0.000000 0.689377
vt 0.021975 0.689377
vt 0.105094 0.693792
vt 0.374597 0.693792
vt 0.758273 0.689377
vt 1.000000 0.689377
vt 0.719171 0.204096
vt 0.280829 0.204096
vt 0.166667 0.204096
vt 0.280829 0.795904
vt 0.719171 0.795904
vt 0.833333 0.694561
vt 0.166667 0.795904
vt 0.166667 0.795904
vt 0.280829 0.694561
vt 0.719171 0.305439
vt 0.833333 0.305439
vt 0.280829 0.795904
vt 0.719171 0.795904
vt 0.083333 0.204096
vt 0.166667 0.795904
vt 0.166667 0.795904
vt 0.166667 0.795904
vt 0.166667 0.795904
vt 0.017596 0.204096
vt 0.166667 0.204096
vt 0.166667 0.204096
vt 0.166667 0.204096
vt 0.833333 0.204096
vt 0.833333 0.204096
vt 0.833333 0.204096
vt 0.833333 0.204096
vt 0.982404 0.795904
vt 0.833333 0.795904
vt 0.833333 0.795904
vt 0.833333 0.795904
vt 0.960801 0.204096
vt 0.877468 0.204096
vt 0.083333 0.204096
vt 0.083333 0.204096
vt 0.039199 0.204096
vt 0.122532 0.204096
vt 0.083333 0.204096
vt 0.122532 0.204096
vt 0.039199 0.204096
vt 0.083333 0.795904
vt 0.083333 0.795904
vt 0.122532 0.795904
vt 0.039199 0.795904
vt 0.877468 0.795904
vt 0.960801 0.795904
vt 0.916667 0.204096
vt 0.916667 0.204096
vt 0.877468 0.204096
vt 0.960801 0.204096
vt 0.039199 0.795904
vt 0.122532 0.795904
vt 0.916667 0.795904
vt 0.916667 0.795904
vt 0.960801 0.795904
vt 0.877468 0.795904
vn 0.0000 1.0000 0.0000
vn 0.0000 0.8397 -0.5431
vn 0.0000 0.8397 0.5431
vn 0.0000 0.0000 -1.0000
vn 0.0000 0.0000 1.0000
vn 0.5431 0.8397 0.0000
vn -0.5431 0.8397 0.0000
vn 1.0000 0.0000 0.0000
vn -1.0000 0.0000 0.0000
vn -0.4714 0.8698 -0.1458
vn -0.3458 0.8723 -0.3458
vn -0.1458 0.8698 -0.4714
vn 0.4714 0.8698 -0.1458
vn 0.3458 0.8723 -0.3458
vn 0.1458 0.8698 -0.4714
vn -0.4714 0.8698 0.1458
vn -0.3458 0.8723 0.3458
vn -0.1458 0.8698 0.4714
vn 0.4714 0.8698 0.1458
vn 0.3458 0.8723 0.3458
vn 0.1458 0.8698 0.4714
usemtl None
s off
f 42/1/1 4/2/1 12/3/1 39/4/1
f 40/5/1 11/6/1 2/7/1 44/8/1
f 8/9/2 9/10/2 33/11/2 35/12/2
f 10/13/2 5/14/2 36/15/2 34/16/2
f 37/17/1 7/18/1 8/9/1 35/12/1
f 36/15/1 5/14/1 6/19/1 38/20/1
f 33/11/1 9/10/1 3/21/1 49/22/1
f 52/23/1 1/24/1 10/13/1 34/16/1
f 39/4/3 12/3/3 7/18/3 37/17/3
f 38/20/3 6/19/3 11/6/3 40/5/3
f 16/25/4 4/2/4 42/1/4 46/26/4
f 2/7/4 14/27/4 47/28/4 44/8/4
f 3/21/5 15/29/5 54/30/5 49/22/5
f 13/31/5 1/24/5 52/23/5 56/32/5
f 44/33/1 20/34/1 28/35/1 43/36/1
f 51/37/1 27/38/1 18/39/1 52/40/1
f 45/41/6 24/42/6 25/43/6 41/44/6
f 50/45/6 26/46/6 21/47/6 55/48/6
f 48/49/1 23/50/1 24/42/1 45/41/1
f 55/48/1 21/47/1 22/51/1 53/52/1
f 41/44/1 25/43/1 19/53/1 42/54/1
f 49/55/1 17/56/1 26/46/1 50/45/1
f 43/36/7 28/35/7 23/50/7 48/49/7
f 53/52/7 22/51/7 27/38/7 51/37/7
f 32/57/8 20/34/8 44/33/8 47/58/8
f 18/39/8 30/59/8 56/60/8 52/40/8
f 19/53/9 31/61/9 46/62/9 42/54/9
f 29/63/9 17/56/9 49/55/9 54/64/9
f 35/12/2 33/11/2 58/65/2 69/66/2
f 53/52/7 51/37/7 76/67/7 79/68/7
f 38/20/3 40/5/3 62/69/3 85/70/3
f 39/4/3 37/17/3 92/71/3 65/72/3
f 49/55/1 50/45/1 57/73/1 59/74/1 60/75/1 58/76/1 33/77/1
f 43/36/7 48/49/7 86/78/7 61/79/7
f 38/20/1 85/70/1 88/80/1 81/81/1 80/82/1 36/15/1
f 34/83/1 75/84/1 77/85/1 78/86/1 76/87/1 51/88/1 52/40/1
f 45/41/6 41/44/6 66/89/6 91/90/6
f 44/33/1 43/36/1 61/91/1 63/92/1 64/93/1 62/94/1 40/95/1
f 39/96/1 65/97/1 67/98/1 68/99/1 66/100/1 41/101/1 42/54/1
f 53/52/1 79/68/1 82/102/1 71/103/1 70/104/1 55/48/1
f 45/41/1 91/90/1 94/105/1 87/106/1 86/78/1 48/49/1
f 88/107/1 87/106/1 94/105/1 93/108/1 72/109/1 71/110/1 82/111/1 81/112/1
f 37/17/1 35/12/1 69/66/1 72/113/1 93/114/1 92/71/1
f 34/16/2 36/15/2 80/82/2 75/115/2
f 69/66/1 73/116/1 74/117/1 70/118/1 71/119/1 72/113/1
f 79/120/1 83/121/1 84/122/1 80/82/1 81/81/1 82/123/1
f 85/70/1 89/124/1 90/125/1 86/126/1 87/127/1 88/80/1
f 91/128/1 95/129/1 96/130/1 92/71/1 93/114/1 94/131/1
f 79/68/10 76/67/10 78/132/10 83/133/10
f 83/134/11 78/135/11 77/136/11 84/137/11
f 84/137/12 77/136/12 75/115/12 80/82/12
f 57/138/13 70/104/13 74/139/13 59/140/13
f 59/141/14 74/142/14 73/143/14 60/144/14
f 60/144/15 73/143/15 69/66/15 58/65/15
f 61/79/16 86/78/16 90/145/16 63/146/16
f 63/147/17 90/148/17 89/149/17 64/150/17
f 64/150/18 89/149/18 85/70/18 62/69/18
f 91/90/19 66/89/19 68/151/19 95/152/19
f 95/153/20 68/154/20 67/155/20 96/156/20
f 96/156/21 67/155/21 65/72/21 92/71/21
f 50/45/6 55/48/6 70/104/6 57/138/6
o Road.001_Plane.002
v 9.999999 0.277941 5.918084
v 9.999999 0.277941 -5.918085
v -9.999999 0.277941 5.918085
v -9.999999 0.277941 -5.918084
v 9.999999 0.096979 3.507751
v 9.999999 0.096979 -3.507752
v -9.999999 0.096979 -3.507751
v -9.999999 0.096979 3.507752
v -9.999999 0.277941 3.787544
v 9.999999 0.277941 3.787544
v 9.999999 0.277941 -3.787544
v -9.999999 0.277941 -3.787544
v 9.999999 0.000000 5.918084
v 9.999999 0.000000 -5.918085
v -9.999999 0.000000 5.918085
v -9.999999 0.000000 -5.918084
vt 0.916667 0.000000
vt 1.000000 0.000000
vt 1.000000 1.000000
vt 0.916667 1.000000
vt 0.083333 0.000000
vt 0.166667 0.000000
vt 0.166667 1.000000
vt 0.083333 1.000000
vt 0.833333 0.000000
vt 0.833333 1.000000
vt 0.000000 0.000000
vt 0.000000 1.000000
vt 1.000000 0.000000
vt 1.000000 1.000000
vt 0.000000 1.000000
vt 0.000000 0.000000
vn 0.0000 1.0000 0.0000
vn -0.0000 0.8397 -0.5431
vn 0.0000 0.8397 0.5431
vn -0.0000 0.0000 -1.0000
vn 0.0000 0.0000 1.0000
usemtl None
s off
f 107/157/22 98/158/22 100/159/22 108/160/22
f 106/161/23 101/162/23 104/163/23 105/164/23
f 101/162/22 102/165/22 103/166/22 104/163/22
f 97/167/22 106/161/22 105/164/22 99/168/22
f 102/165/24 107/157/24 108/160/24 103/166/24
f 100/159/25 98/158/25 110/169/25 112/170/25
f 97/167/26 99/168/26 111/171/26 109/172/26
